<svg width="41" height="41" viewBox="0 0 41 41" fill="none" xmlns="http://www.w3.org/2000/svg">
<path d="M20.097 13.1358C19.7984 11.5078 20.5681 9.83246 21.4952 8.70342C22.5168 7.45767 24.2701 6.50233 25.7684 6.39734C26.0215 8.10413 25.3249 9.76709 24.408 10.9434C23.4245 12.207 21.7334 13.187 20.097 13.1358ZM28.8855 19.0347C29.3491 17.7412 30.2676 16.5774 31.6925 15.7922C30.2526 13.9954 28.2309 12.9522 26.3232 12.9522C23.7991 12.9522 22.7318 14.1548 20.9786 14.1548C19.1726 14.1548 17.8024 12.9522 15.6161 12.9522C13.4721 12.9522 11.19 14.2589 9.74266 16.4907C9.21049 17.3156 8.85 18.3404 8.6534 19.4819C8.10786 22.684 8.92277 26.8549 11.3536 30.5583C12.5355 32.3553 14.1109 34.3795 16.169 34.3971C18.0024 34.4151 18.5225 33.225 21.0044 33.2127C23.49 33.1986 23.9611 34.4095 25.7919 34.392C27.8506 34.3746 29.5128 32.1345 30.6947 30.3377C31.5363 29.0483 31.8546 28.397 32.509 26.9392C29.1815 25.6843 27.8129 22.0177 28.8855 19.0347Z" fill="black"/>
</svg>
