<svg width="41" height="41" viewBox="0 0 41 41" fill="none" xmlns="http://www.w3.org/2000/svg">
<path fill-rule="evenodd" clip-rule="evenodd" d="M11.9404 20.3972C11.9404 19.4505 12.0976 18.5429 12.3782 17.6915L7.46609 13.9404C6.50874 15.8842 5.96936 18.0745 5.96936 20.3972C5.96936 22.718 6.50808 24.9069 7.4641 26.8493L12.3736 23.0909C12.0956 22.2436 11.9404 21.3393 11.9404 20.3972Z" fill="#FBBC05"/>
<path fill-rule="evenodd" clip-rule="evenodd" d="M20.5649 11.7846C22.6216 11.7846 24.4792 12.5134 25.9388 13.7059L30.1849 9.46586C27.5974 7.21334 24.2802 5.82208 20.5649 5.82208C14.7969 5.82208 9.83963 9.12069 7.46582 13.9404L12.378 17.6915C13.5098 14.2558 16.7362 11.7846 20.5649 11.7846Z" fill="#EB4335"/>
<path fill-rule="evenodd" clip-rule="evenodd" d="M20.5649 29.0097C16.7362 29.0097 13.5098 26.5386 12.378 23.1028L7.46582 26.8533C9.83963 31.6737 14.7969 34.9723 20.5649 34.9723C24.1249 34.9723 27.5238 33.7082 30.0747 31.3398L25.412 27.7351C24.0964 28.5639 22.4398 29.0097 20.5649 29.0097Z" fill="#34A853"/>
<path fill-rule="evenodd" clip-rule="evenodd" d="M34.498 20.3972C34.498 19.536 34.3653 18.6084 34.1663 17.7472H20.5657V23.3785H28.3943C28.0029 25.2984 26.9374 26.7745 25.4128 27.7351L30.0755 31.3398C32.7552 28.8528 34.498 25.148 34.498 20.3972Z" fill="#4285F4"/>
</svg>
