<svg width="184" height="82" viewBox="0 0 184 82" fill="none" xmlns="http://www.w3.org/2000/svg">
<path d="M85.8949 31.0101C85.4097 30.7817 84.8316 30.9902 84.6033 31.4752C84.3751 31.9604 84.5832 32.5384 85.0683 32.7668L94.6802 37.2897L95.7167 41.1579C92.4936 41.7725 89.299 41.189 86.8381 39.5063C80.8873 35.438 80.9592 27.2817 82.0675 21.1559C82.6342 18.0244 84.024 14.211 85.346 11.1202C85.5567 10.6273 85.3281 10.0568 84.8353 9.84604C84.3426 9.63545 83.772 9.86384 83.561 10.3569C82.1997 13.5397 80.7562 17.5004 80.1572 20.8102C78.4212 30.405 80.3528 37.4242 85.7427 41.109C88.8845 43.2571 93.0102 43.8914 97.062 42.8492C97.0652 42.8484 97.0683 42.8476 97.0715 42.8467C97.5291 42.7241 97.9944 42.1568 97.8342 41.5589L96.439 36.3521C96.3651 36.0762 96.1732 35.8467 95.9147 35.7249L85.8949 31.0101Z" fill="#4D822B"/>
<path d="M98.642 21.272L93.3564 28.5371L85.0463 24.7534C84.5584 24.5313 83.9828 24.7467 83.7605 25.2344C83.5384 25.7223 83.7537 26.2979 84.2416 26.52C84.3689 26.5782 93.2084 30.6074 93.3397 30.6558C93.7716 30.8164 94.2248 30.6492 94.46 30.32L100.212 22.4144C100.527 21.9807 100.432 21.3738 99.998 21.0582C99.5644 20.7427 98.9573 20.8385 98.642 21.272Z" fill="#4D822B"/>
<path d="M85.6284 19.1428C85.1463 18.9082 84.5653 19.1085 84.3307 19.5906C84.0959 20.0724 84.2964 20.6535 84.7784 20.8884L87.5393 22.2328C88.0214 22.4676 88.6024 22.2667 88.8369 21.785C89.0718 21.3032 88.8712 20.7221 88.3893 20.4875L85.6284 19.1428Z" fill="#4D822B"/>
<path d="M97.6081 34.0288C98.0428 34.3421 98.6498 34.2439 98.9632 33.8088L103.16 27.9859C103.473 27.551 103.375 26.9442 102.94 26.6307C102.505 26.3173 101.898 26.4159 101.585 26.8507L97.3882 32.6736C97.0749 33.1088 97.1733 33.7152 97.6081 34.0288Z" fill="#4D822B"/>
<path d="M100.911 15.2493C96.9312 10.5494 89.3622 5.56747 87.6426 4.33207C86.8633 3.77145 85.828 4.56922 86.1701 5.46662C86.1846 5.61776 85.9144 4.57482 90.916 23.2411C91.1533 24.1269 92.2718 24.1367 92.71 23.5494L97.0906 17.6753C97.4109 17.2456 97.3224 16.6373 96.8927 16.3169C96.4631 15.9966 95.8547 16.085 95.5343 16.5146L92.2895 20.8658L88.6905 7.43408C91.6486 9.51585 96.568 13.1241 99.4295 16.5037C103.452 21.2546 107.593 28.2823 104.473 34.7812C103.485 36.8412 102.243 38.4454 100.094 39.6313C99.6241 39.8903 99.4537 40.4807 99.7125 40.9499C99.9718 41.4195 100.563 41.5898 101.031 41.3308C103.536 39.9487 105.059 38.0474 106.223 35.6211C109.049 29.7349 107.212 22.6904 100.911 15.2493Z" fill="#4D822B"/>
<path d="M13.844 55.2373V81.3973H8.948V55.2373H13.844ZM0.98 58.5973V54.3733H21.86V58.5973H0.98ZM22.2504 81.3973V61.6693H26.8104L27.1944 67.4293L27.1464 71.6533V81.3973H22.2504ZM27.1464 72.9013L27.0024 68.5333C27.0024 67.8613 27.1304 67.1413 27.3864 66.3733C27.6424 65.5733 28.0584 64.8213 28.6344 64.1173C29.2424 63.4133 30.0264 62.8373 30.9864 62.3893C31.9464 61.9093 33.1304 61.6693 34.5384 61.6693H35.2584V67.1413H34.5384C33.1624 67.1413 31.9944 67.2533 31.0344 67.4773C30.0744 67.6693 29.3064 67.9893 28.7304 68.4373C28.1864 68.8853 27.7864 69.4773 27.5304 70.2133C27.2744 70.9493 27.1464 71.8453 27.1464 72.9013ZM44.9971 81.8773C43.2051 81.8773 41.7491 81.4613 40.6291 80.6293C39.5091 79.7653 38.6931 78.5813 38.1811 77.0773C37.7011 75.5413 37.4611 73.7813 37.4611 71.7973C37.4611 69.7813 37.7171 68.0053 38.2291 66.4693C38.7411 64.9333 39.5411 63.7493 40.6291 62.9173C41.7491 62.0533 43.2051 61.6213 44.9971 61.6213C46.1491 61.6213 47.1091 61.7813 47.8771 62.1013C48.6771 62.4213 49.3171 62.8053 49.7971 63.2533C50.3091 63.7013 50.6931 64.1493 50.9491 64.5973C51.2051 65.0133 51.3811 65.3493 51.4771 65.6053H51.5731V61.6693H56.6131V81.3973H52.3891L51.5731 78.1813H51.4771C51.4131 78.4053 51.2371 78.7253 50.9491 79.1413C50.6611 79.5253 50.2611 79.9413 49.7491 80.3893C49.2691 80.8053 48.6291 81.1573 47.8291 81.4453C47.0611 81.7333 46.1171 81.8773 44.9971 81.8773ZM47.0131 77.7493C48.1971 77.7493 49.1251 77.4933 49.7971 76.9813C50.4691 76.4693 50.9331 75.7653 51.1891 74.8693C51.4451 73.9413 51.5731 72.9333 51.5731 71.8453C51.5731 70.6613 51.4291 69.6373 51.1411 68.7733C50.8851 67.8773 50.4211 67.1893 49.7491 66.7093C49.1091 66.1973 48.1971 65.9413 47.0131 65.9413C45.7651 65.9413 44.7891 66.2133 44.0851 66.7573C43.4131 67.3013 42.9331 68.0213 42.6451 68.9173C42.3891 69.7813 42.2611 70.7573 42.2611 71.8453C42.2611 72.9333 42.3891 73.9253 42.6451 74.8213C42.9331 75.7173 43.4131 76.4373 44.0851 76.9813C44.7891 77.4933 45.7651 77.7493 47.0131 77.7493ZM69.4831 81.8773C67.6271 81.8773 65.9471 81.5093 64.4431 80.7733C62.9391 80.0053 61.7391 78.8853 60.8431 77.4133C59.9471 75.9093 59.4991 74.0853 59.4991 71.9413C59.5631 69.7973 60.0271 67.9573 60.8911 66.4213C61.7871 64.8853 62.9871 63.7013 64.4911 62.8693C65.9951 62.0373 67.6911 61.6213 69.5791 61.6213C71.5631 61.6213 73.2431 62.0053 74.6191 62.7733C75.9951 63.5093 77.0671 64.4693 77.8351 65.6533C78.6031 66.8373 79.0351 68.0853 79.1311 69.3973H74.6191C74.3951 68.2453 73.8671 67.3653 73.0351 66.7573C72.2031 66.1493 71.0991 65.8453 69.7231 65.8453C68.5711 65.8453 67.5951 66.0853 66.7951 66.5653C65.9951 67.0453 65.3711 67.7173 64.9231 68.5813C64.5071 69.4133 64.2991 70.4053 64.2991 71.5573C64.2991 73.4133 64.7471 74.9013 65.6431 76.0213C66.5711 77.1093 67.9311 77.6533 69.7231 77.6533C70.9391 77.6533 71.9951 77.3333 72.8911 76.6933C73.8191 76.0533 74.3951 75.1093 74.6191 73.8613H79.1311C79.0351 75.2373 78.5871 76.5333 77.7871 77.7493C77.0191 78.9653 75.9311 79.9573 74.5231 80.7253C73.1471 81.4933 71.4671 81.8773 69.4831 81.8773ZM87.6151 81.3973H82.7191V54.3733H87.6151V81.3973ZM92.3671 67.7653L102.159 81.3973H96.3031L88.8151 71.1733L92.3671 67.7653ZM87.4231 76.6453V71.1253L96.0151 61.5733H102.015L87.4231 76.6453ZM105.003 81.3973V54.3733H113.547L119.883 79.2853H119.979L126.267 54.3733H134.763V81.3973H129.675L130.011 56.5813H129.963L123.483 81.3973H116.283L109.899 56.5813H109.803L110.091 81.3973H105.003ZM148.509 81.8773C146.333 81.8773 144.493 81.4453 142.989 80.5813C141.517 79.7173 140.413 78.5333 139.677 77.0293C138.941 75.4933 138.573 73.7493 138.573 71.7973C138.573 69.8133 138.941 68.0693 139.677 66.5653C140.413 65.0293 141.517 63.8293 142.989 62.9653C144.493 62.1013 146.349 61.6693 148.557 61.6693C151.789 61.6693 154.237 62.5973 155.901 64.4533C157.597 66.3093 158.445 68.7573 158.445 71.7973C158.445 73.6853 158.093 75.3973 157.389 76.9333C156.685 78.4693 155.597 79.6853 154.125 80.5813C152.653 81.4453 150.781 81.8773 148.509 81.8773ZM148.509 77.7493C149.949 77.7493 151.037 77.4453 151.773 76.8373C152.541 76.2293 153.053 75.4613 153.309 74.5333C153.565 73.5733 153.693 72.6133 153.693 71.6533C153.693 70.6293 153.565 69.6533 153.309 68.7253C153.053 67.7973 152.541 67.0293 151.773 66.4213C151.037 65.7813 149.949 65.4613 148.509 65.4613C147.101 65.4613 146.013 65.7813 145.245 66.4213C144.509 67.0293 143.997 67.7973 143.709 68.7253C143.453 69.6533 143.325 70.6293 143.325 71.6533C143.325 72.6133 143.453 73.5733 143.709 74.5333C143.997 75.4613 144.509 76.2293 145.245 76.8373C146.013 77.4453 147.101 77.7493 148.509 77.7493ZM171.149 81.8773C168.973 81.8773 167.133 81.4453 165.629 80.5813C164.157 79.7173 163.053 78.5333 162.317 77.0293C161.581 75.4933 161.213 73.7493 161.213 71.7973C161.213 69.8133 161.581 68.0693 162.317 66.5653C163.053 65.0293 164.157 63.8293 165.629 62.9653C167.133 62.1013 168.989 61.6693 171.197 61.6693C174.429 61.6693 176.877 62.5973 178.541 64.4533C180.237 66.3093 181.085 68.7573 181.085 71.7973C181.085 73.6853 180.733 75.3973 180.029 76.9333C179.325 78.4693 178.237 79.6853 176.765 80.5813C175.293 81.4453 173.421 81.8773 171.149 81.8773ZM171.149 77.7493C172.589 77.7493 173.677 77.4453 174.413 76.8373C175.181 76.2293 175.693 75.4613 175.949 74.5333C176.205 73.5733 176.333 72.6133 176.333 71.6533C176.333 70.6293 176.205 69.6533 175.949 68.7253C175.693 67.7973 175.181 67.0293 174.413 66.4213C173.677 65.7813 172.589 65.4613 171.149 65.4613C169.741 65.4613 168.653 65.7813 167.885 66.4213C167.149 67.0293 166.637 67.7973 166.349 68.7253C166.093 69.6533 165.965 70.6293 165.965 71.6533C165.965 72.6133 166.093 73.5733 166.349 74.5333C166.637 75.4613 167.149 76.2293 167.885 76.8373C168.653 77.4453 169.741 77.7493 171.149 77.7493Z" fill="#12270C"/>
</svg>
