<svg width="24" height="25" viewBox="0 0 24 25" fill="none" xmlns="http://www.w3.org/2000/svg">
<path d="M3 7.39734C3 6.86691 3.21071 6.3582 3.58579 5.98313C3.96086 5.60805 4.46957 5.39734 5 5.39734H19C19.5304 5.39734 20.0391 5.60805 20.4142 5.98313C20.7893 6.3582 21 6.86691 21 7.39734V17.3973C21 17.9278 20.7893 18.4365 20.4142 18.8116C20.0391 19.1866 19.5304 19.3973 19 19.3973H5C4.46957 19.3973 3.96086 19.1866 3.58579 18.8116C3.21071 18.4365 3 17.9278 3 17.3973V7.39734Z" stroke="#488B2E" stroke-width="2" stroke-linecap="round" stroke-linejoin="round"/>
<path d="M3 7.39734L12 13.3973L21 7.39734" stroke="#488B2E" stroke-width="2" stroke-linecap="round" stroke-linejoin="round"/>
</svg>
