<svg width="24" height="25" viewBox="0 0 24 25" fill="none" xmlns="http://www.w3.org/2000/svg">
<path d="M12 17.3973C11.4696 17.3973 10.9609 17.1866 10.5858 16.8116C10.2107 16.4365 10 15.9278 10 15.3973C10 14.2873 10.89 13.3973 12 13.3973C12.5304 13.3973 13.0391 13.6081 13.4142 13.9831C13.7893 14.3582 14 14.8669 14 15.3973C14 15.9278 13.7893 16.4365 13.4142 16.8116C13.0391 17.1866 12.5304 17.3973 12 17.3973ZM18 20.3973V10.3973H6V20.3973H18ZM18 8.39734C18.5304 8.39734 19.0391 8.60805 19.4142 8.98313C19.7893 9.3582 20 9.86691 20 10.3973V20.3973C20 20.9278 19.7893 21.4365 19.4142 21.8116C19.0391 22.1866 18.5304 22.3973 18 22.3973H6C5.46957 22.3973 4.96086 22.1866 4.58579 21.8116C4.21071 21.4365 4 20.9278 4 20.3973V10.3973C4 9.28734 4.89 8.39734 6 8.39734H7V6.39734C7 5.07126 7.52678 3.79949 8.46447 2.8618C9.40215 1.92412 10.6739 1.39734 12 1.39734C12.6566 1.39734 13.3068 1.52667 13.9134 1.77794C14.52 2.02921 15.0712 2.39751 15.5355 2.8618C15.9998 3.3261 16.3681 3.87729 16.6194 4.48392C16.8707 5.09055 17 5.74073 17 6.39734V8.39734H18ZM12 3.39734C11.2044 3.39734 10.4413 3.71341 9.87868 4.27602C9.31607 4.83863 9 5.60169 9 6.39734V8.39734H15V6.39734C15 5.60169 14.6839 4.83863 14.1213 4.27602C13.5587 3.71341 12.7956 3.39734 12 3.39734Z" fill="#488B2E"/>
</svg>
