<svg width="24" height="24" viewBox="0 0 24 24" fill="none" xmlns="http://www.w3.org/2000/svg">
<path fill-rule="evenodd" clip-rule="evenodd" d="M4.73303 3.04299C5.95003 1.83299 7.95403 2.04799 8.97303 3.40999L10.235 5.09399C11.065 6.20199 10.991 7.74999 10.006 8.72899L9.76803 8.96699C9.74104 9.0669 9.7383 9.17181 9.76003 9.27299C9.82303 9.68099 10.164 10.545 11.592 11.965C13.02 13.385 13.89 13.725 14.304 13.789C14.4083 13.81 14.5161 13.8069 14.619 13.78L15.027 13.374C15.903 12.504 17.247 12.341 18.331 12.93L20.241 13.97C21.878 14.858 22.291 17.082 20.951 18.415L19.53 19.827C19.082 20.272 18.48 20.643 17.746 20.712C15.936 20.881 11.719 20.665 7.28603 16.258C3.14903 12.144 2.35503 8.55599 2.25403 6.78799C2.20403 5.89399 2.62603 5.13799 3.16403 4.60399L4.73303 3.04299ZM7.77303 4.30899C7.26603 3.63199 6.32203 3.57799 5.79003 4.10699L4.22003 5.66699C3.89003 5.99499 3.73203 6.35699 3.75203 6.70299C3.83203 8.10799 4.47203 11.345 8.34403 15.195C12.406 19.233 16.157 19.354 17.607 19.218C17.903 19.191 18.197 19.037 18.472 18.764L19.892 17.351C20.47 16.777 20.343 15.731 19.525 15.287L17.615 14.248C17.087 13.962 16.469 14.056 16.085 14.438L15.63 14.891L15.1 14.359C15.63 14.891 15.629 14.892 15.628 14.892L15.627 14.894L15.624 14.897L15.617 14.903L15.602 14.917C15.5598 14.9562 15.5143 14.9916 15.466 15.023C15.386 15.076 15.28 15.135 15.147 15.184C14.877 15.285 14.519 15.339 14.077 15.271C13.21 15.138 12.061 14.547 10.534 13.029C9.00803 11.511 8.41203 10.369 8.27803 9.50299C8.20903 9.06099 8.26403 8.70299 8.36603 8.43299C8.42216 8.28106 8.50254 8.13922 8.60403 8.01299L8.63603 7.97799L8.65003 7.96299L8.65603 7.95699L8.65903 7.95399L8.66103 7.95199L8.94903 7.66599C9.37703 7.23899 9.43703 6.53199 9.03403 5.99299L7.77303 4.30899Z" fill="#488B2E"/>
</svg>
