<svg width="24" height="24" viewBox="0 0 24 24" fill="none" xmlns="http://www.w3.org/2000/svg">
<path d="M11.9998 3C11.045 3 10.1294 3.37928 9.45422 4.05442C8.77909 4.72955 8.3998 5.64522 8.3998 6.6C8.3998 7.55478 8.77909 8.47045 9.45422 9.14558C10.1294 9.82072 11.045 10.2 11.9998 10.2C12.9546 10.2 13.8703 9.82072 14.5454 9.14558C15.2205 8.47045 15.5998 7.55478 15.5998 6.6C15.5998 5.64522 15.2205 4.72955 14.5454 4.05442C13.8703 3.37928 12.9546 3 11.9998 3ZM10.1998 6.6C10.1998 6.12261 10.3894 5.66477 10.727 5.32721C11.0646 4.98964 11.5224 4.8 11.9998 4.8C12.4772 4.8 12.935 4.98964 13.2726 5.32721C13.6102 5.66477 13.7998 6.12261 13.7998 6.6C13.7998 7.07739 13.6102 7.53523 13.2726 7.87279C12.935 8.21036 12.4772 8.4 11.9998 8.4C11.5224 8.4 11.0646 8.21036 10.727 7.87279C10.3894 7.53523 10.1998 7.07739 10.1998 6.6ZM16.4998 12H7.4998C6.78372 12 6.09696 12.2845 5.59062 12.7908C5.08427 13.2972 4.7998 13.9839 4.7998 14.7C4.7998 16.7088 5.626 18.318 6.9814 19.407C8.3152 20.478 10.1044 21 11.9998 21C13.8952 21 15.6844 20.478 17.0182 19.407C18.3718 18.318 19.1998 16.7088 19.1998 14.7C19.1998 13.9839 18.9153 13.2972 18.409 12.7908C17.9026 12.2845 17.2159 12 16.4998 12ZM7.4998 13.8H16.4998C16.7385 13.8 16.9674 13.8948 17.1362 14.0636C17.305 14.2324 17.3998 14.4613 17.3998 14.7C17.3998 16.1706 16.8148 17.2614 15.8914 18.003C14.9446 18.7626 13.5838 19.2 11.9998 19.2C10.4158 19.2 9.055 18.7626 8.1082 18.003C7.1848 17.2614 6.5998 16.1706 6.5998 14.7C6.5998 14.4613 6.69463 14.2324 6.86341 14.0636C7.03219 13.8948 7.26111 13.8 7.4998 13.8Z" fill="#488B2E"/>
</svg>
